<svg xmlns="http://www.w3.org/2000/svg" class="svg-icon" style="width:1em;height:1em;vertical-align:middle;fill:currentColor;overflow:hidden" viewBox="0 0 1024 1024"><path d="M518.4 102.4a403.2 403.2 0 1 0 403.2 403.2 403.584 403.584 0 0 0-403.2-403.2m390.4 403.2a393 393 0 0 1-2.432 42.752c-18.56-26.24-38.4-54.912-49.792-71.936-15.104-22.656-35.584-34.048-52.352-29.056-14.848 4.608-23.424 21.12-23.424 45.44 0 12.8-2.816 21.76-7.808 24.448s-15.872-1.28-19.84-3.712c-24.32-30.336-81.536-97.536-103.808-89.6-4.224 1.536-9.344 5.888-9.344 17.792 0 33.28 20.096 47.488 34.816 57.984C685.312 506.88 691.2 512 691.2 518.4a93.2 93.2 0 0 1-12.8 33.408 207.5 207.5 0 0 0-25.6 94.592c0 43.776-25.6 120.576-66.56 146.048a51.2 51.2 0 0 1-52.224 1.792c-51.2-25.6-47.36-48.768-40.32-86.784A264 264 0 0 0 499.2 659.2c0-72.192-32.256-108.8-96-108.8-35.328 0-58.112-7.808-67.712-23.168s-6.144-38.4 9.472-70.016a105.09 105.09 0 0 1 108.8-60.416c18.176 1.792 109.696 9.856 129.92-8.448a14.08 14.08 0 0 0 5.12-10.752c0-32-58.496-57.6-108.8-57.6a215.6 215.6 0 0 0-75.904 18.688c-12.8 5.12-31.488 12.032-34.816 8.832a34.3 34.3 0 0 1-8.704-30.208c3.072-10.752 13.824-18.688 31.36-23.168 45.696-11.392 53.376-23.552 70.272-50.432q4.48-7.296 10.368-16.128c16.512-25.6 45.824-18.944 71.808-13.696a133.4 133.4 0 0 0 25.6 3.712c5.632 0 22.784 0 73.472-81.92A391.3 391.3 0 0 1 908.8 505.6m-773.888-72.704c14.464 77.568 30.08 125.056 46.208 140.8 29.184 29.312 43.008 91.648 41.216 185.472a388.35 388.35 0 0 1-87.424-326.656zM518.4 896a389.25 389.25 0 0 1-283.648-122.624c3.584-106.368-10.88-174.592-44.672-208.256-15.744-15.872-32.768-74.24-47.872-163.712A390.91 390.91 0 0 1 518.4 115.2a387 387 0 0 1 112.128 16.512c-33.664 53.632-53.76 73.088-60.928 73.088a127 127 0 0 1-22.656-3.456c-26.88-5.504-64-12.8-85.12 19.072-3.968 6.144-7.424 11.52-10.496 16.512-15.872 25.6-21.76 34.688-62.464 44.928-28.16 6.912-37.632 21.248-40.576 32.128a46.21 46.21 0 0 0 12.032 42.496c9.088 9.216 25.6 2.944 48.384-5.888A206.5 206.5 0 0 1 480 332.8c51.2 0 96 25.6 96 44.8l-.896 1.28c-12.8 11.264-80.256 9.088-119.68 5.248a119.68 119.68 0 0 0-121.984 67.456c-17.664 35.456-20.608 63.104-8.832 82.304S363.136 563.2 403.2 563.2c56.704 0 83.2 30.464 83.2 96a240.6 240.6 0 0 1-5.376 45.952C473.6 742.4 468.096 775.68 528.384 806.4a68.1 68.1 0 0 0 30.592 7.68 64.9 64.9 0 0 0 34.048-10.112C640 774.4 665.6 692.224 665.6 646.4a193.9 193.9 0 0 1 25.6-89.6 97.7 97.7 0 0 0 12.8-38.4c0-13.952-11.136-21.76-21.76-29.312-14.464-10.24-29.44-20.864-29.44-47.488a11 11 0 0 1 .896-5.632c9.088-2.688 51.2 37.632 89.6 86.4l1.408 1.408a36.86 36.86 0 0 0 33.792 4.736C788.736 523.392 793.6 512 793.6 492.8s5.248-30.336 14.336-33.152 26.24 6.272 38.4 23.936 36.864 54.016 57.6 83.328A390.91 390.91 0 0 1 518.4 896"/></svg>
