<svg xmlns="http://www.w3.org/2000/svg" width="800" height="800" viewBox="0 0 32 32"><title>new</title><path fill-rule="evenodd" d="m11.786 23.02-5.372 3.253c-.489.228-.929-.244-.701-.702l3.252-5.376zm9.453-15.798 3.537 3.49-11.24 11.247-3.512-3.515zm3.537-3.539a.993.993 0 0 1 1.406 0l2.107 2.108a.995.995 0 0 1 0 1.406l-2.107 2.109-3.463-3.566zM8.11 18.068l-4.3 8.705c-.361.981.423 1.859 1.403 1.404l8.699-4.303c.375-.073.739-.219 1.029-.509L30.396 7.899a1.99 1.99 0 0 0 0-2.811l-3.512-3.515a1.987 1.987 0 0 0-2.81 0L8.619 17.038c-.291.291-.435.655-.509 1.03M30 12v16c0 1.099-1.086 2.012-2.183 2.012H3.974a1.99 1.99 0 0 1-1.987-1.989V4.165C1.987 3.066 2.902 2 4 2h16V0H4C1.806 0 0 1.969 0 4.165v23.858A3.975 3.975 0 0 0 3.974 32h23.843C30.012 32 32 30.196 32 28V12z"/></svg>
